<?xml version="1.0" standalone="no"?>
<!DOCTYPE svg PUBLIC "-//W3C//DTD SVG 20010904//EN"
 "http://www.w3.org/TR/2001/REC-SVG-20010904/DTD/svg10.dtd">
<svg version="1.0" xmlns="http://www.w3.org/2000/svg"
 width="1935.000000pt" height="1935.000000pt" viewBox="0 0 1935.000000 1935.000000"
 preserveAspectRatio="xMidYMid meet">
<metadata>
Created by potrace 1.14, written by Peter Selinger 2001-2017
</metadata>
<g transform="translate(0.000000,1935.000000) scale(0.100000,-0.100000)"
fill="#000000" stroke="none">
<path d="M12930 19331 c-63 -10 -163 -28 -222 -41 l-108 -23 0 -58 0 -58 53 4
c404 31 548 30 766 -6 544 -90 893 -371 1004 -809 17 -70 21 -114 21 -250 0
-147 -3 -176 -27 -264 -82 -305 -303 -568 -595 -707 -193 -92 -378 -129 -651
-129 -536 0 -1137 118 -2001 394 -202 64 -445 148 -1285 441 -1208 421 -1953
617 -2695 709 -331 41 -477 50 -805 50 -335 0 -491 -12 -770 -60 -1186 -205
-2203 -932 -2719 -1944 -154 -301 -254 -612 -312 -967 -21 -132 -30 -572 -15
-740 78 -860 424 -1439 1118 -1876 186 -116 586 -303 830 -388 l52 -18 12 55
c7 30 10 56 8 57 -2 2 -33 24 -69 49 -89 63 -226 207 -284 300 -86 140 -148
315 -177 503 -18 121 -16 374 5 470 59 270 168 468 371 670 178 179 365 296
600 378 234 81 394 102 704 94 433 -11 908 -86 1546 -242 566 -138 983 -262
2445 -728 1149 -367 1782 -543 2374 -662 457 -92 763 -129 1164 -141 l232 -7
-1 -1246 0 -1246 -975 -850 c-536 -467 -981 -857 -989 -865 -13 -14 99 -118
975 -905 l990 -890 0 -1826 0 -1825 -222 -72 c-558 -181 -1099 -283 -1758
-334 -247 -19 -928 -16 -1167 5 -569 50 -1043 143 -1503 297 -452 151 -825
332 -1205 585 -488 326 -897 734 -1220 1220 -143 217 -217 346 -326 570 -292
607 -456 1236 -531 2040 -20 220 -17 1067 5 1315 37 413 96 795 177 1145 38
163 114 453 122 460 5 5 1601 707 1621 712 16 5 17 -174 17 -3671 0 -2022 3
-3676 8 -3676 4 0 762 332 1684 737 l1677 738 1 3774 c0 3589 -1 3773 -17
3768 -10 -2 -1118 -496 -2462 -1096 -1344 -601 -2444 -1091 -2446 -1089 -3 3
104 283 149 388 16 36 63 137 106 225 419 857 1061 1584 1872 2118 163 108
363 224 511 298 56 28 103 53 105 54 8 7 -22 85 -33 85 -6 0 -119 -27 -251
-60 -2058 -511 -3860 -1646 -4979 -3135 -640 -852 -1043 -1795 -1204 -2815
-48 -299 -51 -364 -51 -1009 0 -556 2 -632 21 -800 153 -1373 693 -2645 1568
-3696 213 -256 562 -613 806 -826 775 -675 1677 -1191 2670 -1529 687 -233
1338 -369 2100 -437 288 -26 1188 -26 1485 0 1056 92 1925 324 2741 733 1758
879 2932 2484 3389 4634 118 556 200 1301 200 1827 l0 174 -41 -3 -41 -3 -63
-155 c-408 -1006 -1012 -1852 -1780 -2494 -409 -341 -882 -637 -1365 -854 -96
-43 -183 -81 -192 -85 -17 -6 -18 83 -18 1792 l0 1797 961 865 c529 475 975
875 991 889 l30 25 -991 879 -991 878 2 1236 3 1236 123 13 c677 67 1313 322
1812 726 117 95 333 311 431 430 381 465 609 1015 669 1616 15 153 12 496 -5
646 -72 621 -318 1138 -745 1565 -465 465 -1117 788 -1873 927 -137 25 -157
26 -587 29 -388 3 -460 1 -560 -15z"/>
</g>
</svg>
